<?xml version="1.0" encoding="UTF-8" standalone="no"?><!-- Generator: Gravit.io --><svg xmlns="http://www.w3.org/2000/svg" xmlns:xlink="http://www.w3.org/1999/xlink" style="isolation:isolate" viewBox="0 0 1000 400" width="1000pt" height="400pt"><defs><clipPath id="_clipPath_wrnpUJYFRKBziS7YJ4pqDgGegvZ01a4q"><rect width="1000" height="400"/></clipPath></defs><g clip-path="url(#_clipPath_wrnpUJYFRKBziS7YJ4pqDgGegvZ01a4q)"><rect width="1000" height="400" style="fill:rgb(0,123,255)"/><rect x="319.5" y="300" width="360" height="100" transform="matrix(1,0,0,1,0,0)" fill="rgb(0,0,0)" fill-opacity="0.5"/><path d="M 339.5 85 L 659.5 85 C 670.538 85 679.5 93.962 679.5 105 L 679.5 305 C 679.5 316.038 670.538 325 659.5 325 L 339.5 325 C 328.462 325 319.5 316.038 319.5 305 L 319.5 105 C 319.5 93.962 328.462 85 339.5 85 Z" style="stroke:none;fill:#141414;stroke-miterlimit:10;"/><path d=" M 525.318 210.438 L 502.26 223.75 L 479.202 237.063 C 474.004 240.064 469.784 237.627 469.784 231.625 L 469.784 205 L 469.784 178.375 C 469.784 172.373 474.004 169.936 479.202 172.938 L 502.26 186.25 L 525.318 199.563 C 530.516 202.564 530.516 207.436 525.318 210.438 Z " fill="rgb(235,235,235)"/><path d=" M 0 400 C 0 348.576 0 205 0 164 C 15 123 82 134.826 82 186.25 C 82 203.261 119 218 162 205 C 205 192 204 245 200 268 C 196 291 245.545 282 261.773 307 C 278 332 259 348 261.773 368.197 C 264.545 388.394 304.645 400 299 400 C 251.503 400 58 401 0 400 Z " fill="rgb(0,104,215)"/><path d=" M 1000 0.444 C 1000 51.868 1000 195.444 1000 236.444 C 974 231 968.021 251.544 943 251 C 897 250 895 215.25 875 194 C 855 172.75 792 195 773 159 C 754 123 776.227 110 760 85 C 743.773 60 697.773 59.197 695 39 C 692.227 18.803 707.355 0.444 713 0.444 C 760.497 0.444 942 -0.556 1000 0.444 Z " fill="rgb(0,104,215)"/><path d=" M 161 101.798 C 161 81.102 177.803 64.298 198.5 64.298 C 219.197 64.298 236 81.102 236 101.798 C 236 122.495 219.197 139.298 198.5 139.298 C 177.803 139.298 161 122.495 161 101.798 Z  M 179.75 101.798 C 179.75 91.45 188.152 83.048 198.5 83.048 C 208.848 83.048 217.25 91.45 217.25 101.798 C 217.25 112.147 208.848 120.548 198.5 120.548 C 188.152 120.548 179.75 112.147 179.75 101.798 Z " fill-rule="evenodd" fill="rgb(235,235,235)"/><path d=" M 806 257.371 L 806 244.871 C 806 237.972 800.399 232.371 793.5 232.371 L 793.5 232.371 C 786.601 232.371 781 237.972 781 244.871 L 781 257.371 L 768.5 257.371 C 761.601 257.371 756 262.972 756 269.871 L 756 269.871 C 756 276.77 761.601 282.371 768.5 282.371 L 781 282.371 L 781 294.871 C 781 301.77 786.601 307.371 793.5 307.371 L 793.5 307.371 C 800.399 307.371 806 301.77 806 294.871 L 806 282.371 L 818.5 282.371 C 825.399 282.371 831 276.77 831 269.871 L 831 269.871 C 831 262.972 825.399 257.371 818.5 257.371 L 806 257.371 Z " fill-rule="evenodd" fill="rgb(235,235,235)"/><rect x="930.985" y="217.058" width="25" height="240" transform="matrix(0.707,0.707,-0.707,0.707,514.676,-568.423)" fill="rgb(235,235,235)"/><rect x="966.024" y="249.539" width="25" height="240" transform="matrix(0.707,0.707,-0.707,0.707,547.906,-583.685)" fill="rgb(235,235,235)"/></g></svg>